<svg id="Слой_1" data-name="Слой 1" xmlns="http://www.w3.org/2000/svg" viewBox="0 0 741.91 146.09"><defs><style>.cls-1{fill:#ec1923;}</style></defs><path d="M251.12,65a43.57,43.57,0,0,0-17.72-3.32h-11V48.77h36.79V32.41H202.36v83.17h31a41.93,41.93,0,0,0,17.72-3.46,27.35,27.35,0,0,0,11.64-9.6,24.82,24.82,0,0,0,4.13-14.18,24,24,0,0,0-4.13-14A27,27,0,0,0,251.12,65ZM245.4,94a11,11,0,0,1-4.58,4.13,16.14,16.14,0,0,1-7.42,1.54h-11V77.35h11q6.58-.06,10.08,3.07a9.94,9.94,0,0,1,3.48,7.7A11.09,11.09,0,0,1,245.4,94Z"/><path d="M285.25,68.42a104.72,104.72,0,0,1-1.84,18Q282,93,279.23,96.05a10.71,10.71,0,0,1-7.09,3.46l-2.4.28v15.79h5.13q10.28,0,16.39-4t9-12.75q2.89-8.76,3.57-23l1.34-27.63H325.5v67.37h19.42V32.41H286.65Z"/><polygon points="375.06 80.31 374.34 80.31 374.34 32.41 354.3 32.41 354.3 115.58 371.27 115.58 404.37 67.58 404.98 67.58 404.98 115.58 425.02 115.58 425.02 32.41 407.72 32.41 375.06 80.31"/><polygon points="505.12 32.41 485.53 32.41 485.53 99.79 453.71 99.79 453.71 32.41 434.4 32.41 434.4 115.58 491.95 115.58 497.75 115.58 497.75 135.23 516.62 135.23 517.68 100.01 505.12 100.01 505.12 32.41"/><polygon points="580.31 32.41 523.48 32.41 523.48 115.58 543.52 115.58 543.52 48.77 580.31 48.77 580.31 32.41"/><path d="M601.07,32.41l-28.13,83.17h21.6L600,98.11H628.8l5.48,17.47h21.55L627.75,32.41Zm3.76,50.41,9.25-29.47h.67L624,82.82Z"/><path d="M721.39,79.13Q716.5,74,706.9,72.88v-.61a20.35,20.35,0,0,0,11.78-5.64,15.59,15.59,0,0,0,4.58-11.5,20.76,20.76,0,0,0-3.77-12.19,25.65,25.65,0,0,0-10.55-8.52,37.24,37.24,0,0,0-15.71-3.12,38.16,38.16,0,0,0-16,3.21,27.3,27.3,0,0,0-11.11,8.87A22.07,22.07,0,0,0,662,56.47h19.25a8.49,8.49,0,0,1,1.62-5,10.45,10.45,0,0,1,4.27-3.32,14.83,14.83,0,0,1,6.06-1.2,12.47,12.47,0,0,1,5.64,1.2,9.25,9.25,0,0,1,3.74,3.3,9,9,0,0,1,1.34,4.94,8.43,8.43,0,0,1-1.59,5,10.48,10.48,0,0,1-4.39,3.43,15.89,15.89,0,0,1-6.47,1.23h-8.09V80.42h8.09a19,19,0,0,1,7.31,1.28,11.3,11.3,0,0,1,4.77,3.52,8.39,8.39,0,0,1,1.71,5.25,8.87,8.87,0,0,1-1.54,5.13,10.22,10.22,0,0,1-4.27,3.49,14.93,14.93,0,0,1-6.31,1.25,17,17,0,0,1-6.36-1.14A10.46,10.46,0,0,1,682.26,96a7.85,7.85,0,0,1-1.71-4.83h-20.2a22.31,22.31,0,0,0,4.27,13.32,27.85,27.85,0,0,0,11.55,9A41.35,41.35,0,0,0,693,116.7a44.39,44.39,0,0,0,17.28-3.15A28,28,0,0,0,722,104.78,20.66,20.66,0,0,0,726.27,92,17.94,17.94,0,0,0,721.39,79.13Z"/><path class="cls-1" d="M154.05,73q-4.61-8.43-14.7-13.17t-24.61-4.69h-11.9V55H82.11l-4,24h32.58c5.61,0,9.69,1.22,12.23,3.84a10.4,10.4,0,0,1,2.74,9.76,15.77,15.77,0,0,1-3.15,7.4,17.61,17.61,0,0,1-6.77,5.11,24.51,24.51,0,0,1-9.84,1.83H73.46l-4.08,24.54h32.54a67.47,67.47,0,0,0,26.2-4.88A51.37,51.37,0,0,0,147.34,113a40,40,0,0,0,9.38-20.1Q158.63,81.4,154.05,73ZM33.56,26.47,31,41.66H161.15l1.92-11.22a11.93,11.93,0,0,0-11.75-13.93h-106A11.92,11.92,0,0,0,33.56,26.47Z"/><polygon class="cls-1" points="38.91 131.49 60.36 131.49 73.39 55.05 51.94 55.05 38.91 131.49"/><path class="cls-1" d="M30.09,131.49h0L43.12,55H29L18.34,117.57A11.92,11.92,0,0,0,30.09,131.49Z"/></svg>