<svg id="Layer_1" data-name="Layer 1" xmlns="http://www.w3.org/2000/svg" viewBox="0 0 457.31 91.72"><defs><style>.cls-1{fill:#f2623b;}.cls-2{fill:#f7fafa;}</style></defs><path class="cls-1" d="M104.57,82c-8.69,1.61-17.76,2.9-22.18,12.13-6.49,13.51-1.3,29.83,17,32.44a100.17,100.17,0,0,0,18.63.83c1.63-.07,2.11.37,2.25,2,.77,8.94.82,8.94-8.12,8.94-7.48,0-15,.09-22.44,0-2.32,0-3.36.72-3.16,3.09.24,2.79-.81,5.53-.07,8.39.57,2.23-.32,3.51-3.06,3.49-19.72-.09-39.44-.06-59.16,0-1.92,0-2.94-.36-2.85-2.59.15-3.39.13-6.8,0-10.2-.07-2,.36-2.66,2.61-2.64,15.64.12,31.28-.06,46.92.09,3.45,0,4.45-1,4.42-4.43-.15-16.09,0-32.18-.08-48.27,0-2.26.61-3.43,3-3.41,7.36.09,14.73.09,22.09.23a26.4,26.4,0,0,1,4.35.81Z" transform="translate(-21.35 -61.58)"/><path class="cls-2" d="M34.05,132.32c1.07,1.26,2.45,1.46,3.2.84,2.13-1.73,4.73-1.33,7.08-1.91,11.75-2.86,17.69-10.52,17.45-22.8-.2-10.57-7-18-18.37-20.23-6.4-1.25-12.86-.93-19.3-.9-2,0-2.71-.41-2.74-2.59-.11-8.14-.2-8.14,7.94-8.14,7.25,0,14.51-.23,21.74.1,3.61.17,4.52-1,4.2-4.35-.26-2.69,0-5.43-.07-8.15-.07-1.78.26-2.61,2.36-2.61q30.25.12,60.51,0c1.59,0,2.19.42,2.14,2.08-.11,3.51-.18,7,0,10.54.13,2.27-.81,2.54-2.74,2.53-16-.07-31.95,0-47.93-.12-2.85,0-3.52.71-3.5,3.53.15,16.43,0,32.86.13,49.29,0,2.5-.56,3.28-3.16,3.21-6.8-.2-13.6-.06-20.4-.08a11.06,11.06,0,0,1-5-.75A3.56,3.56,0,0,0,34.05,132.32Z" transform="translate(-21.35 -61.58)"/><path class="cls-2" d="M296.87,102.93c0-7.47.13-15-.07-22.42-.08-2.67.8-3.27,3.23-3.06a42.36,42.36,0,0,0,7.47,0c2.24-.2,2.58.74,2.56,2.69-.07,11.44,0,22.88-.09,34.31,0,2.46.49,3.4,3.13,3.24a111,111,0,0,1,11.54,0c2.11.08,2.66-.61,2.64-2.68-.1-11.44,0-22.88-.11-34.32,0-2.46.52-3.47,3.17-3.22,3.24.3,7.52-1,9.5.63s.6,6.16.63,9.4c.1,9.06.17,18.12,0,27.17-.07,2.75.93,3.47,3.24,3,2.16-.49,2.71.33,2.68,2.35q-.14,7.82,0,15.63c0,1.67-.36,2.62-2.24,2.35a12.14,12.14,0,0,0-1.35,0c-2.49,0-5.6.77-7.27-.42s-.53-4.44-.49-6.77-1.23-2.23-2.81-2.23c-10.65,0-21.3-.1-31.94.1-2.95.06-3.51-.85-3.44-3.58C297,117.66,296.87,110.29,296.87,102.93Z" transform="translate(-21.35 -61.58)"/><path class="cls-2" d="M255.59,106.85q6.36-9.7,12.74-19.41c.55-.85,1.08-1.72,1.65-2.57,5.31-8,5.31-7.91,14.81-7.42,1.6.08,2.14.5,2.13,2.13q-.07,23.44,0,46.88c0,1.68-.6,2.13-2.17,2.07a80.14,80.14,0,0,0-8.49,0c-2.2.15-2.6-.71-2.57-2.71.11-7.24,0-14.49.05-21.73v-4.6l-.67-.18q-3.12,4.72-6.23,9.44c-3.79,5.77-7.63,11.5-11.3,17.34-1.08,1.71-2.19,2.63-4.31,2.42-3-.29-7,1.22-8.84-.57s-.58-5.78-.6-8.8c-.07-12.9,0-25.81-.08-38.72,0-2.36.62-3.22,3-3,3.24.3,7.45-1.31,9.51.58s.59,6.2.65,9.43c.11,6.39,0,12.78,0,19.17Z" transform="translate(-21.35 -61.58)"/><path class="cls-2" d="M139.51,102.9c0-7.58.05-15.17,0-22.75,0-2,.5-2.73,2.65-2.71q16.31.16,32.6,0c2,0,2.46.61,2.5,2.51.22,8.44.28,8.44-8,8.44-4.19,0-8.4.26-12.56-.09-3.42-.29-4,.94-4,4.08.05,2.77.65,3.72,3.53,3.54a49.93,49.93,0,0,1,10.5.32c10.11,1.51,15.22,7,15,16.29s-6,15.17-16.08,15.73c-8,.44-16.07.11-24.1.27-2.14.05-2-1.11-2-2.54,0-7.7,0-15.4,0-23.1Zm13.29,8.85c0,1.47,0,2.93,0,4.39,0,.93.29,1.52,1.33,1.47,3.46-.17,7,.46,10.38-.71a5.39,5.39,0,0,0-.11-10.18,18.36,18.36,0,0,0-6-.66C152.81,106.12,152.81,106.08,152.8,111.75Z" transform="translate(-21.35 -61.58)"/><path class="cls-2" d="M231.81,103c0,7.7-.06,15.41,0,23.11,0,1.9-.46,2.57-2.42,2.46a63.3,63.3,0,0,0-8.49,0c-2.26.17-2.56-.81-2.55-2.74.07-11.33-.06-22.66.1-34,0-2.89-.83-3.83-3.62-3.48-3,.38-6.93-1.27-8.76.69s-.49,5.84-.56,8.88c-.18,7.13-.33,14.27-2.45,21.16-2.39,7.75-7.28,10.94-15.35,10.4-1.82-.13-2.33-.82-2.23-2.5s0-3.63,0-5.44c0-2.14-.5-4.22,3-4.18,2.19,0,2.75-2.38,3.27-4.25,1.66-6,1.12-12.14,1.38-18.22.22-5,.11-10,0-15,0-1.91.56-2.52,2.51-2.5,11.21.08,22.42.12,33.64,0,2.34,0,2.49.95,2.48,2.78C231.77,87.8,231.81,95.39,231.81,103Z" transform="translate(-21.35 -61.58)"/><path class="cls-2" d="M470,102c6.9,2.56,9.12,7.3,8.6,13.61s-4.23,10.2-9.88,12.1a35.34,35.34,0,0,1-22.36.21c-6.63-2.11-10-6.94-11.2-13.62-.32-1.83.08-2.77,2.19-2.59a41,41,0,0,0,5.43,0c3.29-.18,6.12-.38,7.24,4.08.79,3.16,5.84,4.23,10.51,3,2.83-.76,4.45-2.52,4.46-5.6s-1.43-5.16-4.54-5.84c-1.21-.26-2.46-.37-3.69-.56-1.74-.27-4.47.87-5-.56-.84-2.18-.31-4.9-.32-7.38,0-1.23,1-1,1.72-1,1.59,0,3.19.09,4.76-.07a5.46,5.46,0,0,0,5.29-5.55c0-3.12-1.93-4.93-5.49-5.17-4.27-.28-6.26.88-7.63,5-.46,1.38-1.2,1.41-2.23,1.41-3.18,0-6.35-.11-9.52,0-2,.1-2.12-.82-2-2.46a13.92,13.92,0,0,1,10.3-12.9,37.75,37.75,0,0,1,19.48-.41c5.34,1.19,9.29,4.16,10.4,9.87C477.64,93.47,476.41,98.54,470,102Z" transform="translate(-21.35 -61.58)"/><path class="cls-2" d="M383,128.51c2.9-7.87,5.66-15.35,8.39-22.83,3.1-8.47,6.24-16.93,9.22-25.44.69-2,1.48-3,3.77-2.8,3.36.27,7.37-.92,10,.55s2.73,5.9,3.9,9q7,18.89,13.85,37.79c1.35,3.68,1.35,3.68-2.73,3.69H428c-2.81-.05-6.24.84-8.26-.46-1.84-1.18-2.26-4.7-3.09-7.26-.52-1.62-1.43-2-3-1.94-1.8.12-3.62,0-5.43,0-2.93,0-6.32-.81-8.68.38s-2.16,4.92-3.26,7.48c-.42,1-.68,1.83-2,1.8C390.71,128.46,387.12,128.51,383,128.51Zm19.86-19.84c2.73,0,5.09,0,7.44,0,1.35,0,1.82-.33,1.34-1.74-1.35-4-2.61-8.08-4.13-12.8Z" transform="translate(-21.35 -61.58)"/><path class="cls-2" d="M353.06,102.89c0-7.59.06-15.18,0-22.77,0-2.06.58-2.7,2.69-2.68,9.63.12,19.26.1,28.89,0,1.94,0,2.77.31,2.8,2.55.12,8.39.21,8.39-8.11,8.39-3.4,0-6.81.14-10.19-.05-2.24-.13-2.82.58-2.8,2.78.11,11.45-.06,22.89.12,34.33,0,2.65-.74,3.29-3.19,3.09-3.25-.25-7.53,1-9.51-.63s-.56-6.15-.63-9.4C353,113.31,353.06,108.1,353.06,102.89Z" transform="translate(-21.35 -61.58)"/><path class="cls-1" d="M120.25,105.59c0,8.1,0,8.09-8,8.09a30.83,30.83,0,0,1-7.71-.77c-4-1-6.16-3.61-6.18-7.64s2.26-6.63,6.23-7.59c4.45-1.08,9-.64,13.47-.82,1.58-.06,2.24.8,2.23,2.3C120.24,101.3,120.25,103.45,120.25,105.59Z" transform="translate(-21.35 -61.58)"/><path class="cls-2" d="M21.44,109c0-8,0-8,8.1-8a27.45,27.45,0,0,1,8.07.76,7.5,7.5,0,0,1,5.68,7.5,7.33,7.33,0,0,1-5.67,7.49c-4.88,1.36-9.89.63-14.85.8-1.33,0-1.35-.84-1.34-1.81C21.46,113.54,21.44,111.28,21.44,109Z" transform="translate(-21.35 -61.58)"/></svg>