<svg id="Layer_1" data-name="Layer 1" xmlns="http://www.w3.org/2000/svg" viewBox="0 0 412.38 69"><defs><style>.cls-1{fill:#fff;}</style></defs><path class="cls-1" d="M285.81,26.73c3.22,0,6.3,0,9.38,0,2,0,1.67,1.48,1.67,2.67q0,15.27,0,30.55v5.71h18.48V26.94h11.5v39h6.79V86.38h-11V75.11H285.81Z" transform="translate(-43.34 -17.38)"/><path class="cls-1" d="M239.2,75.11V27h11.39V53.73l.58.3c.55-.67,1.15-1.3,1.63-2,5.2-7.61,10.44-15.18,15.52-22.87,1.22-1.83,2.52-2.67,4.74-2.48s4.61,0,7.09,0V74.88h-11.4V47c-1.05,1.26-1.61,1.82-2.05,2.46-5.3,7.65-10.67,15.26-15.82,23-1.36,2-2.79,2.91-5.2,2.68C243.59,75,241.46,75.11,239.2,75.11Z" transform="translate(-43.34 -17.38)"/><path class="cls-1" d="M78.21,53.76c.82-4.89,1.57-9.36,2.39-14.28,8.88.31,17.63.14,26.27,1.07,7.42.8,14,4.22,16.5,11.93,2.61,8,.26,15.35-5.22,21.56A27.53,27.53,0,0,1,100,83.56c-8.83.87-17.75.84-26.95,1.21.86-5.23,1.62-9.8,2.43-14.72,5.89,0,11.78.06,17.66,0a23.88,23.88,0,0,0,5.73-.67,9.14,9.14,0,0,0,6.26-5.22c2.23-4.94.26-9.16-5.08-9.95a84,84,0,0,0-11-.41C85.58,53.72,82.1,53.76,78.21,53.76Z" transform="translate(-43.34 -17.38)"/><path class="cls-1" d="M233.42,75H222.36V36.05H210.57c-.43,7-.77,13.86-1.3,20.7A42.47,42.47,0,0,1,208,64.18c-2.2,8.32-8.17,11.89-17.84,10.65V66.05c6.55-.78,7.64-5.93,8.06-11.18.63-7.82.85-15.67,1.24-23.51.07-1.43.14-2.86.21-4.46h33.77Z" transform="translate(-43.34 -17.38)"/><path class="cls-1" d="M444.93,50c1,.32,1.51.54,2.07.67,4.32,1,7.4,3.5,8.38,7.91a12.08,12.08,0,0,1-3.87,12.14c-7.29,6.69-22.29,6.82-29.66.25a13.3,13.3,0,0,1-4.6-10.11c3.65,0,7.19-.06,10.72.07.5,0,1.09.89,1.42,1.49,2.24,4.06,9,5.07,12.37,1.8a5,5,0,0,0-.77-8,14.91,14.91,0,0,0-5.21-1.47,36,36,0,0,0-5-.05V46.2c1.77,0,3.48.08,5.19,0,3.81-.23,6.21-2.08,6.58-5,.34-2.7-1.27-4.91-4.21-5.78a7.11,7.11,0,0,0-8.43,3.37c-.28.59-.51,1.22-.75,1.78H418.47c-.52-3.83,1.15-6.72,3.5-9.24,6.36-6.84,20.89-7.26,27.74-.88C457,37.26,454.86,46.61,444.93,50Z" transform="translate(-43.34 -17.38)"/><path class="cls-1" d="M50.75,32c.62-3.41,1-6.68,1.84-9.84S56,17.42,60,17.41q20.07,0,40.13,0c6.59,0,13.18,0,19.77,0,5.83,0,8.66,3.52,7.63,9.28-.3,1.71-.65,3.42-1,5.28Z" transform="translate(-43.34 -17.38)"/><path class="cls-1" d="M337.76,26.87H370.4v9.2H349.31V75H337.76Z" transform="translate(-43.34 -17.38)"/><path class="cls-1" d="M75.47,39.77c-1.09,6.58-2.12,12.86-3.18,19.12C71,66.62,69.6,74.34,68.37,82.07c-.29,1.8-1,2.48-2.81,2.4-3.26-.14-6.54,0-10.16,0,.94-5.72,1.79-11.05,2.7-16.36,1.46-8.59,3.07-17.15,4.37-25.76.34-2.19,1.15-2.67,3.15-2.58C68.79,39.88,72,39.77,75.47,39.77Z" transform="translate(-43.34 -17.38)"/><path class="cls-1" d="M50.29,84.28c-4.54-.52-7.44-3-6.88-6.86,1.82-12.53,4-25,6.11-37.54h8.35C55.33,54.79,52.81,69.54,50.29,84.28Z" transform="translate(-43.34 -17.38)"/><path class="cls-1" d="M180.08,46.29c-3.47-1.47-7.43-1.88-11.21-2.47a43.44,43.44,0,0,0-6.56-.06V36.11h21.14V26.9H150.74V75.05c7,0,13.79.29,20.54-.13a24.58,24.58,0,0,0,9.36-2.78c5.18-2.65,7.59-7.32,7.53-13.13S185.42,48.55,180.08,46.29Zm-8.66,19.05a88,88,0,0,1-9.13.71V52.62a90.05,90.05,0,0,1,9.77.79,5.6,5.6,0,0,1,4.4,5.73A6,6,0,0,1,171.42,65.34Z" transform="translate(-43.34 -17.38)"/><path class="cls-1" d="M414.18,73.64q-7.64-22.7-15.37-45.38a3.05,3.05,0,0,0-2.31-1.47c-3.68-.16-7.38,0-11.06-.13-2.1-.09-3,.64-3.69,2.66-3.57,10.84-7.31,21.63-11,32.45-1.46,4.34-2.86,8.71-4.37,13.34,3.77,0,7.07-.12,10.35,0,1.87.1,2.54-.73,3-2.33.76-2.59,1-6.15,2.78-7.4s5.37-.56,8.15-.58c2.61,0,5.94-.83,7.63.45s2,4.78,2.95,7.3a4.42,4.42,0,0,0,.45,1.37c.38.46.95,1.07,1.46,1.09,3.64.09,7.3,0,11.09,0A8,8,0,0,0,414.18,73.64ZM385.05,55.86l5.14-16.38.64,0c1.68,5.32,3.36,10.64,5.17,16.4Z" transform="translate(-43.34 -17.38)"/></svg>