<svg id="Layer_1" data-name="Layer 1" xmlns="http://www.w3.org/2000/svg" viewBox="0 0 452.78 83.45"><defs><style>.cls-1{fill:#fff;}</style></defs><path class="cls-1" d="M65.74,113.78v12.13c1.07.11,1.86.26,2.64.26,7,0,13.92,0,20.88,0,5.33,0,7.55-2.32,7.6-7.56C97,109.28,95.67,108,86.26,108H23.08V91.43c.87-.05,1.74-.16,2.62-.16,23.2,0,46.41,0,69.61,0a43.92,43.92,0,0,1,8.37,1c8.09,1.61,12.95,6.84,13.89,14.75a81.88,81.88,0,0,1,0,19.85c-1.17,9.29-7.3,15.12-17,15.4-18.63.55-37.29.16-56.19.16V113.78Z" transform="translate(-23.08 -59.18)"/><path class="cls-1" d="M277.27,123.73v-27l-.62-.19c-2.48,4.42-5,8.82-7.45,13.24-2.26,4-4.41,8.15-6.84,12.09a4.79,4.79,0,0,1-3.21,1.94c-3.3.25-6.63.09-10.15.09V78h11.6v26.59l.71.31c.62-1,1.26-2,1.85-3.08,4.08-7.29,8.2-14.56,12.2-21.9a3.44,3.44,0,0,1,3.52-2.17c3.3.12,6.61,0,10.09,0v46Z" transform="translate(-23.08 -59.18)"/><path class="cls-1" d="M343.46,115.12c0,5.26.06,10.59-.09,15.91,0,.57-1.21,1.54-1.9,1.58-2.9.18-5.82.08-9,.08a48.18,48.18,0,0,1-.68-6.07c0-2.15-.81-2.75-2.86-2.73-9,.08-17.95,0-26.93,0h-3.5V78h11.33v36.63h16.78V78H338.2c.05,1.19.15,2.35.15,3.51q0,13.92,0,27.84C338.36,114.4,338.37,114.4,343.46,115.12Z" transform="translate(-23.08 -59.18)"/><path class="cls-1" d="M110.46,75.5H65.77v9.93H44.37V59.18h66.09Z" transform="translate(-23.08 -59.18)"/><path class="cls-1" d="M432.93,123.91c-4,0-7.64.11-11.25-.09-.75,0-1.76-1.13-2.1-2-2.5-6.1-2.45-6.12-9-6.11a13.63,13.63,0,0,1-2.12,0c-5.42-.9-9.4.29-10.27,6.59-.09.61-1.3,1.18-2.09,1.55a4.48,4.48,0,0,1-1.8.06H385c1.16-3.2,2.17-6.07,3.24-8.91,4.34-11.49,8.76-23,13-34.46.8-2.15,1.86-3,4.16-2.86,3.31.24,7.42-1,9.72.62s2.84,5.75,4,8.84c4.27,11.18,8.48,22.38,12.71,33.59C432.24,121.66,432.5,122.6,432.93,123.91ZM414.29,107c-1.76-5.13-3.37-9.83-5-14.53l-.69.14c-1.58,4.7-3.17,9.39-4.85,14.39Z" transform="translate(-23.08 -59.18)"/><path class="cls-1" d="M437.12,124.32v-8.84h6.58c5.44,0,10.88,0,16.33,0,3.06,0,4.18-1.33,4.22-4.59,0-3.74-1.05-5.3-4.15-5.37-5.13-.11-10.25,0-15.6,0V96.25c4.69,0,9.3.06,13.91,0,3.17-.06,4.35-1.33,4.47-4.45s-1.35-4.87-4.65-4.89c-5.65,0-11.3,0-16.94,0h-3.45V78a19.81,19.81,0,0,1,2.22-.26c7.66,0,15.33-.1,23,.08,6.57.15,10,2.32,11,7.39,1.44,7.57.22,10.8-5.37,14.27,7.34,3.26,7.7,9.5,7,16.09-.55,4.85-3.6,8.44-8.3,8.6C457.35,124.56,447.38,124.32,437.12,124.32Z" transform="translate(-23.08 -59.18)"/><path class="cls-1" d="M242.24,123.9c-4,0-7.65.13-11.25-.11-.79-.05-1.83-1.33-2.17-2.26-3.11-8.71-6.09-17.46-9.13-26.19-.31-.92-.71-1.81-1.39-3.53-1,2.67-1.64,4.58-2.31,6.5-2.67,7.69-5.39,15.37-8,23.09-.65,2-1.63,2.7-3.71,2.58-3.19-.18-6.41,0-10,0l8.37-22.06c2.73-7.24,5.5-14.47,8.14-21.75.66-1.81,1.6-2.55,3.53-2.4a29.73,29.73,0,0,0,6,0c3.41-.43,5.08.78,6.29,4.16,4.8,13.45,10,26.76,15,40.12C241.83,122.44,241.94,122.92,242.24,123.9Z" transform="translate(-23.08 -59.18)"/><path class="cls-1" d="M137.43,104.85V95.48h3c11.49,0,23,0,34.48,0,11.8,0,15.28,3.62,15.07,15.47-.17,9.11-3.43,12.65-12.58,12.89-9.35.24-18.71,0-28.25,0V108.2h11.52l.35,6.52c4.79,0,9.5.18,14.18-.07,2.39-.12,3.23-2.35,3-6.05-.19-2.6-1.51-3.77-4.09-3.76-11,0-22,0-33,0Z" transform="translate(-23.08 -59.18)"/><path class="cls-1" d="M387.75,78v8.85H376.93c-3.43,0-6.87.16-10.28-.07-2.51-.16-3,.85-3,3.12.08,10.28,0,20.55,0,30.83v2.92H352V78Z" transform="translate(-23.08 -59.18)"/><path class="cls-1" d="M161,86.86l-.28,5.27H149.1V78h36.31v8.84Z" transform="translate(-23.08 -59.18)"/></svg>