<svg id="Layer_1" data-name="Layer 1" xmlns="http://www.w3.org/2000/svg" viewBox="0 0 408.92 63.52"><defs><style>.cls-1{fill:#f1c306;}.cls-2{fill:#fdfdfd;}</style></defs><path class="cls-1" d="M76.5,68.28c9.34,0,18.67,0,28,0,1.95,0,2.83.29,2.81,2.59,0,7.65.05,7.65-7.59,7.65-12.64,0-25.27,0-37.91,0-2.19,0-3.26.37-3.19,2.89.07,2.3.25,3.67,3.15,3.59,4.51-.12,9-.4,13.55.22C83.12,86.21,87.66,90.77,88,97.89s-4.08,12.85-11.47,14.66a33,33,0,0,1-8.11,1c-6.79,0-13.58-.06-20.37,0-1.71,0-2.32-.52-2.32-2.25q.06-20.37,0-40.73c0-1.92.76-2.34,2.52-2.33C57.64,68.31,67.07,68.28,76.5,68.28ZM72.94,88.52c-1.68,0-2.64.38-3.19,1.58-.74,1.6-.24,2.86.85,4.11,4.24,4.79,4.24,4.82,0,9.71-1.41,1.65-2,3.42-.27,5s3.51,1,5-.53c2.27-2.25,4.51-4.53,6.78-6.78,1.66-1.65,1.66-3.32,0-4.94-2.45-2.46-5-4.85-7.43-7.31A2.79,2.79,0,0,0,72.94,88.52Zm-6.56,7.59c-1.63.2-3,1.09-2.95,3a2.87,2.87,0,0,0,3,3A2.83,2.83,0,0,0,69.4,99C69.41,97.19,68.23,96.36,66.38,96.11ZM60.85,99A2.37,2.37,0,0,0,58.61,97a2,2,0,0,0-2.15,2.09,1.91,1.91,0,0,0,2.08,2.1C59.91,101.18,60.45,100.23,60.85,99Zm-7.19.07c-.16-.88-.55-1.41-1.49-1.38s-1.45.36-1.44,1.32a1.4,1.4,0,0,0,1.6,1.52A1.36,1.36,0,0,0,53.66,99.09Z" transform="translate(-45.54 -68.24)"/><path class="cls-2" d="M277.29,99.14c0-6.79.11-13.59-.06-20.38-.05-2.22.66-2.73,2.71-2.59a59.81,59.81,0,0,0,7.92,0c2-.13,2.53.49,2.51,2.48-.1,10.09,0,20.19-.11,30.29,0,2.25.39,3.16,2.87,3a117.88,117.88,0,0,1,11.89,0c2.13.09,2.85-.41,2.82-2.72-.15-10.1,0-20.2-.13-30.29,0-2.25.61-2.92,2.8-2.76a45.33,45.33,0,0,0,7.64,0c2.37-.22,2.72.77,2.7,2.84-.1,10.1,0,20.19-.1,30.29,0,2.06.41,2.77,2.6,2.66,3.67-.19,3.68,0,3.68,3.67,0,4.63-.06,9.25,0,13.87,0,1.64-.26,2.39-2.13,2.27a65.4,65.4,0,0,0-7.92,0c-1.67.08-2.22-.54-2-2.09a.88.88,0,0,0,0-.28c-.22-2.32,1-5.33-.56-6.78s-4.51-.39-6.85-.4c-9.25,0-18.5-.09-27.74,0-2.17,0-2.69-.62-2.65-2.71C277.38,112.73,277.29,105.94,277.29,99.14Z" transform="translate(-45.54 -68.24)"/><path class="cls-2" d="M237,102.18c4.38-6.22,9.2-12.17,13-18.72,3.38-5.86,7.55-8.24,14.27-7.41,2.84.34,3.45.91,3.42,3.64-.15,13.3-.12,26.61,0,39.91,0,2.11-.48,2.79-2.62,2.62a66.14,66.14,0,0,0-8.21,0c-1.79.09-2.21-.58-2.19-2.27.08-7.73,0-15.45,0-23.41-1.21.32-1.51,1.25-2,2-4.88,6.93-9.83,13.83-14.58,20.86-1.4,2.08-2.86,3.16-5.47,2.88a53.78,53.78,0,0,0-7.07,0c-1.34,0-2.06-.2-2.05-1.82q.08-21.23,0-42.46c0-1.41.54-1.75,1.84-1.72,3,.07,6,.14,9.05,0,1.9-.11,2.12.7,2.1,2.29-.07,7.83,0,15.65,0,23.48Z" transform="translate(-45.54 -68.24)"/><path class="cls-2" d="M123.08,99c0-6.89.06-13.78,0-20.67,0-1.76.51-2.2,2.23-2.19q17.13.1,34.26,0c1.72,0,2.34.4,2.2,2.18a34.66,34.66,0,0,0,0,5.94c.16,1.83-.56,2.17-2.23,2.15-7-.09-14,0-20.95-.09-2,0-2.53.52-2.49,2.5.1,4.82,0,4.76,4.7,4.83,4.52.08,9.06-.42,13.54.59,6.22,1.39,10.13,5.28,10.77,10.79.82,7.08-1.88,12.36-7.84,15.15a20.41,20.41,0,0,1-8.77,1.94c-7.73,0-15.47,0-23.21.06-1.77,0-2.23-.52-2.2-2.23C123.13,113,123.08,106,123.08,99ZM142,112.92a23.94,23.94,0,0,0,6-.42,4.54,4.54,0,0,0,4-4.7c0-2.65-1.58-4.18-4.14-4.48a65.57,65.57,0,0,0-7-.38c-4.65-.06-4.65,0-4.66,4.48C136.11,112.92,136.11,112.92,142,112.92Z" transform="translate(-45.54 -68.24)"/><path class="cls-2" d="M213.78,99.42c0,6.8-.05,13.59,0,20.39,0,1.74-.31,2.53-2.28,2.41a70.73,70.73,0,0,0-8.49,0c-1.89.11-2.35-.53-2.33-2.36.08-10.19,0-20.38.09-30.57,0-2.18-.48-3-2.77-2.83a51.27,51.27,0,0,1-7.64,0c-2-.14-2.72.38-2.76,2.57-.12,6.78-.31,13.57-1.62,20.26a32.81,32.81,0,0,1-1.53,5.42c-3,8-9.08,9.36-16.52,7.9-1.17-.23-1.24-1-1.17-1.86.18-2.64.39-5.27.54-7.9,0-.77.17-1.24,1.12-1.17,4,.32,5.41-2.45,6.21-5.63,1.44-5.72,1.12-11.61,1.44-17.43.19-3.39.32-6.79.32-10.18,0-1.63.36-2.28,2.19-2.27q16.56.15,33.12,0c1.92,0,2.09.76,2.07,2.32C213.75,85.46,213.78,92.44,213.78,99.42Z" transform="translate(-45.54 -68.24)"/><path class="cls-2" d="M412.52,122.18c-4.33,0-8.45,0-12.58,0a1.38,1.38,0,0,1-1.46-1.06c-.12-.36-.29-.7-.43-1-2.85-6.78-2.85-6.78-10.07-6.78h-5.37c-6.61,0-6.75-.06-9,6.21-.79,2.23-1.87,2.85-4.06,2.7a77.34,77.34,0,0,0-8.2,0c-1.77.07-2.36-.16-1.49-2.1Q369.29,99,378.55,77.78a2.29,2.29,0,0,1,2.53-1.6c3.66.13,8-1,10.83.5s3.26,6.08,4.72,9.32c5.12,11.42,10.17,22.88,15.24,34.32C412.08,120.81,412.23,121.33,412.52,122.18ZM385.68,89.24c-1.83,4.59-3.37,8.63-5.06,12.61-.58,1.38-.41,1.88,1.14,1.85q4-.08,7.92,0c1.31,0,1.71-.4,1.18-1.67C389.18,98,387.55,93.86,385.68,89.24Z" transform="translate(-45.54 -68.24)"/><path class="cls-2" d="M447,98.38c4.38,2.35,7.26,5.41,7.44,10.44s-2.25,8.26-6.19,10.67c-6.26,3.82-13.2,4.2-20.25,3.5a41.41,41.41,0,0,1-12-3.21c-1.48-.62-2.13-1.21-1.28-2.86a45.6,45.6,0,0,0,2.42-5.72c.52-1.46,1.18-1.52,2.5-.93a26.67,26.67,0,0,0,15.15,2.23c.19,0,.38,0,.57,0,3.65-.7,5.94-2.77,5.74-5.18s-2.32-3.69-6.39-3.78c-3.11-.07-6.23-.07-9.34,0-1.57,0-2.27-.19-2.29-2.08-.07-7.59-.16-7.59,7.34-7.59,1.51,0,3,.05,4.52-.08,2.09-.18,4-.83,4.25-3.32s-1.33-3.64-3.34-4.24a19.23,19.23,0,0,0-13.52,1.16c-2.67,1.17-4.05.91-4.57-2.06a7.17,7.17,0,0,0-.47-1.32c-2.3-5.87-2.31-5.93,3.93-7.55,8.07-2.1,16.07-2.1,23.77,1.48,7.5,3.49,9.95,11.44,5.38,17.19A35,35,0,0,1,447,98.38Z" transform="translate(-45.54 -68.24)"/><path class="cls-1" d="M76.25,130.14c-9.24,0-18.48-.06-27.72,0-2.11,0-3-.43-3-2.79,0-7.73-.09-7.73,7.63-7.73,12.64,0,25.27-.08,37.91.07,2.67,0,3.33-.85,3.3-3.36-.11-9.52,0-19.05-.11-28.57,0-2.33.69-2.93,2.87-2.79,2.72.16,5.46.08,8.2,0,1.43,0,2,.49,2,2q-.08,20.52,0,41c0,2.21-1.28,2.12-2.76,2.12Z" transform="translate(-45.54 -68.24)"/><path class="cls-2" d="M333.17,99.14c0-6.89.07-13.78-.05-20.66,0-1.9.56-2.33,2.36-2.31q14.58.12,29.16,0c1.88,0,2.51.54,2.34,2.38-.23,2.52,1,5.78-.48,7.4s-4.8.46-7.31.53c-3.39.1-6.8.2-10.19,0-2.51-.18-2.89.81-2.87,3,.12,9.9,0,19.81.11,29.72,0,2.25-.43,3.23-2.89,3a55.09,55.09,0,0,0-7.92,0c-1.94.12-2.33-.62-2.31-2.4.1-6.89,0-13.78,0-20.67Z" transform="translate(-45.54 -68.24)"/></svg>