<svg id="Layer_1" data-name="Layer 1" xmlns="http://www.w3.org/2000/svg" viewBox="0 0 1517 350"><defs><style>.cls-1{fill:#0094a8;}</style></defs><path class="cls-1" d="M1178.81,50.62v51.8h-70.36V260.2h-53.6V50.62Z"/><path class="cls-1" d="M1273.71,110.5h49.7V260.2h-49.7V246.43q-15.27,18-42.51,18-29.94,0-50.15-22.6t-20.21-56.44q0-33.82,20.21-56.44t50.15-22.6q27.24,0,42.51,18ZM1219.52,209q8.68,9,22.76,9t22.75-9q8.68-9,8.68-23.66T1265,161.7q-8.68-9-22.75-9t-22.76,9q-8.68,9-8.68,23.65T1219.52,209Z"/><path class="cls-1" d="M1446.76,183.86q22.15,11.67,22.16,35.62,0,19.77-17.07,32.49t-46.1,12.72q-47,0-65-35.92L1379.7,206q6.88,17.37,25.15,17.37a19,19,0,0,0,10.48-2.7,8.44,8.44,0,0,0,4.19-7.48q0-9.28-12.28-9.28h-18V165h15.57q11.07,0,11.07-9,0-9.58-13.17-9.58-15.27,0-21.55,16.17l-38.93-21.26q19.77-35,62.88-35,26,0,42.21,13t16.17,31.89Q1463.53,173.08,1446.76,183.86Z"/><path class="cls-1" d="M481.77,145.83q-19.17-18-51.2-18H397.63V102.42H483V50.62H354.47v-.13l-5.55.13H344v.15c-46.8,1.63-73.72,7.78-78.94,26-1.34,4.67.28,5.85,4.57,5.77,6.89-.14,78.81-.09,85.71,0,9.57.11,16.1,5.85,16.3,14.21.19,7.79-7,14-16.29,14.14-5.75.07-76.55-.26-82.25.27-8.49.78-14,6.75-14.24,14.6s4.81,14.15,13.06,15.76a41.88,41.88,0,0,0,8,.55l46,0a52.29,52.29,0,0,1,8,.29,13.77,13.77,0,0,1,10.1,7.27v12.69c-.13.25-.25.5-.4.75-3.57,5.81-9.11,7.48-15.74,7.47-60.53-.1-52.09-.06-112.62-.05-3.06,0-6.14-.13-9.19.14a14,14,0,0,0-12.56,9.47c-4.19,10.79,3.06,20.77,15.33,20.81,33.33.1,110,0,143.34.05a56.47,56.47,0,0,1,6.89.18,14.79,14.79,0,0,1,12.59,11.06c1.36,5.83-.82,10.56-5.2,14.31-3.29,2.81-7.38,2.9-11.44,2.89H256.76c-7.28,0-14.58-.28-21.83.13-13.23.74-20,13.62-13,24.32,3.53,5.37,9,6.73,15,6.72q38.22,0,76.43,0c38-.38,12.4-.41,30.65-.4v0h86.53q32,0,51.2-18.26t19.16-48.2Q500.93,163.8,481.77,145.83ZM442.4,206.76q-5.25,4.35-13.93,4.34H397.63v-35h30.84q8.68,0,13.93,4.49t5.23,13.18Q447.63,202.43,442.4,206.76Z"/><path class="cls-1" d="M527.87,191q0,14.37-5.38,20.21t-16.17,2.84V260.2q36.23,3.89,53.74-11.37t17.52-50.6V158.1h29.94V260.2h49.7V110.5H527.87Z"/><polygon class="cls-1" points="734.46 180.56 734.46 110.5 685.96 110.5 685.96 260.2 724.28 260.2 782.37 190.14 782.37 260.2 830.87 260.2 830.87 110.5 792.54 110.5 734.46 180.56"/><polygon class="cls-1" points="998.53 213.2 998.53 110.5 948.83 110.5 948.83 213.2 909.31 213.2 909.31 110.5 859.61 110.5 859.61 260.2 976.07 260.2 976.07 300.32 1023.98 300.32 1023.98 213.2 998.53 213.2"/><path class="cls-1" d="M136.1,141.91c31.75.28,63.51.18,95.26,0,5.51,0,10.62-1.89,13.84-6.85s3.75-10.58,1-15.84c-3-5.75-8.4-8.26-14.75-8.3-15.87-.11-31.75,0-47.63,0-15.69,0-31.37-.12-47.06,0-10.55.11-17,6.12-17.06,15.39C119.65,135.21,126,141.82,136.1,141.91Z"/><path class="cls-1" d="M167.32,186.07c.15-9.08-6-15.44-15.42-15.52q-25.26-.2-50.51,0c-10.07.07-16.22,6.1-16.2,15.44,0,8.93,6.21,14.78,16.07,15,8.42.14,16.84,0,25.26,0s16.84.08,25.26,0C161,200.81,167.17,194.8,167.32,186.07Z"/><path class="cls-1" d="M87.61,141.63c8.76-.82,14.3-7.41,14.08-15.28-.24-8.82-6-14.79-15.34-15.34-4.95-.3-9.93-.06-14.89-.06v0c-4.78,0-9.56-.11-14.33,0-9.64.28-15.85,6-16.44,14.95-.51,7.83,5.37,14.8,14.31,15.71A169.19,169.19,0,0,0,87.61,141.63Z"/><path class="cls-1" d="M180.18,82.4c4.76.27,9.55,0,14.33,0,4.59,0,9.18.16,13.76,0a15.51,15.51,0,0,0,15-15.19,14.66,14.66,0,0,0-13.53-15.11A189.85,189.85,0,0,0,180,52c-9.12.77-14.47,6.36-14.46,15.22C165.59,75.84,171.26,81.88,180.18,82.4Z"/><path class="cls-1" d="M171.3,230.34a54.45,54.45,0,0,0-23.9.06c-6.51,1.51-11,7.95-11.08,14.44a15.27,15.27,0,0,0,11.26,14.89c3.95,1.2,8,.7,12,.87,4-.14,8,.33,12-.92,7-2.23,11-7.72,10.91-15.07C182.34,237.76,178.13,231.81,171.3,230.34Z"/></svg>